<mxfile host="app.diagrams.net" agent="Mozilla/5.0 (Windows NT 10.0; Win64; x64) AppleWebKit/537.36 (KHTML, like Gecko) Chrome/135.0.0.0 Safari/537.36" version="26.2.8">
  <diagram name="Page-1" id="HP93TAL0Kk6gjXijAc3H">
    <mxGraphModel dx="1044" dy="648" grid="1" gridSize="10" guides="1" tooltips="1" connect="1" arrows="1" fold="1" page="1" pageScale="1" pageWidth="850" pageHeight="1100" math="0" shadow="0">
      <root>
        <mxCell id="0" />
        <mxCell id="1" parent="0" />
        <mxCell id="PmBzxUUNumcl9Y-DoFM8-1" value="Address" style="rounded=0;whiteSpace=wrap;html=1;" vertex="1" parent="1">
          <mxGeometry x="260" y="300" width="120" height="50" as="geometry" />
        </mxCell>
        <mxCell id="PmBzxUUNumcl9Y-DoFM8-15" style="edgeStyle=orthogonalEdgeStyle;rounded=0;orthogonalLoop=1;jettySize=auto;html=1;exitX=0.5;exitY=0;exitDx=0;exitDy=0;entryX=0.5;entryY=1;entryDx=0;entryDy=0;" edge="1" parent="1" source="PmBzxUUNumcl9Y-DoFM8-2" target="PmBzxUUNumcl9Y-DoFM8-1">
          <mxGeometry relative="1" as="geometry" />
        </mxCell>
        <mxCell id="PmBzxUUNumcl9Y-DoFM8-2" value="state&lt;span style=&quot;color: rgba(0, 0, 0, 0); font-family: monospace; font-size: 0px; text-align: start; text-wrap-mode: nowrap;&quot;&gt;%3CmxGraphModel%3E%3Croot%3E%3CmxCell%20id%3D%220%22%2F%3E%3CmxCell%20id%3D%221%22%20parent%3D%220%22%2F%3E%3CmxCell%20id%3D%222%22%20value%3D%22%22%20style%3D%22ellipse%3BwhiteSpace%3Dwrap%3Bhtml%3D1%3B%22%20vertex%3D%221%22%20parent%3D%221%22%3E%3CmxGeometry%20x%3D%22270%22%20y%3D%22500%22%20width%3D%22120%22%20height%3D%2280%22%20as%3D%22geometry%22%2F%3E%3C%2FmxCell%3E%3C%2Froot%3E%3C%2FmxGraphModel%3E&lt;/span&gt;" style="ellipse;whiteSpace=wrap;html=1;" vertex="1" parent="1">
          <mxGeometry x="220" y="420" width="120" height="80" as="geometry" />
        </mxCell>
        <mxCell id="PmBzxUUNumcl9Y-DoFM8-3" value="id" style="ellipse;whiteSpace=wrap;html=1;" vertex="1" parent="1">
          <mxGeometry x="180" y="190" width="120" height="80" as="geometry" />
        </mxCell>
        <mxCell id="PmBzxUUNumcl9Y-DoFM8-16" style="edgeStyle=orthogonalEdgeStyle;rounded=0;orthogonalLoop=1;jettySize=auto;html=1;exitX=1;exitY=0.5;exitDx=0;exitDy=0;entryX=0;entryY=1;entryDx=0;entryDy=0;" edge="1" parent="1" source="PmBzxUUNumcl9Y-DoFM8-4" target="PmBzxUUNumcl9Y-DoFM8-1">
          <mxGeometry relative="1" as="geometry" />
        </mxCell>
        <mxCell id="PmBzxUUNumcl9Y-DoFM8-4" value="city" style="ellipse;whiteSpace=wrap;html=1;" vertex="1" parent="1">
          <mxGeometry x="110" y="350" width="120" height="80" as="geometry" />
        </mxCell>
        <mxCell id="PmBzxUUNumcl9Y-DoFM8-12" style="edgeStyle=orthogonalEdgeStyle;rounded=0;orthogonalLoop=1;jettySize=auto;html=1;exitX=0;exitY=0.5;exitDx=0;exitDy=0;entryX=1;entryY=0.5;entryDx=0;entryDy=0;" edge="1" parent="1" source="PmBzxUUNumcl9Y-DoFM8-5" target="PmBzxUUNumcl9Y-DoFM8-1">
          <mxGeometry relative="1" as="geometry" />
        </mxCell>
        <mxCell id="PmBzxUUNumcl9Y-DoFM8-5" value="address" style="ellipse;whiteSpace=wrap;html=1;" vertex="1" parent="1">
          <mxGeometry x="450" y="240" width="120" height="80" as="geometry" />
        </mxCell>
        <mxCell id="PmBzxUUNumcl9Y-DoFM8-17" style="edgeStyle=orthogonalEdgeStyle;rounded=0;orthogonalLoop=1;jettySize=auto;html=1;exitX=1;exitY=0.5;exitDx=0;exitDy=0;entryX=0;entryY=0.25;entryDx=0;entryDy=0;" edge="1" parent="1" source="PmBzxUUNumcl9Y-DoFM8-6" target="PmBzxUUNumcl9Y-DoFM8-1">
          <mxGeometry relative="1" as="geometry" />
        </mxCell>
        <mxCell id="PmBzxUUNumcl9Y-DoFM8-6" value="locality" style="ellipse;whiteSpace=wrap;html=1;" vertex="1" parent="1">
          <mxGeometry x="70" y="260" width="120" height="80" as="geometry" />
        </mxCell>
        <mxCell id="PmBzxUUNumcl9Y-DoFM8-11" style="edgeStyle=orthogonalEdgeStyle;rounded=0;orthogonalLoop=1;jettySize=auto;html=1;exitX=0.5;exitY=1;exitDx=0;exitDy=0;entryX=0.75;entryY=0;entryDx=0;entryDy=0;" edge="1" parent="1" source="PmBzxUUNumcl9Y-DoFM8-7" target="PmBzxUUNumcl9Y-DoFM8-1">
          <mxGeometry relative="1" as="geometry" />
        </mxCell>
        <mxCell id="PmBzxUUNumcl9Y-DoFM8-7" value="name" style="ellipse;whiteSpace=wrap;html=1;" vertex="1" parent="1">
          <mxGeometry x="320" y="180" width="120" height="80" as="geometry" />
        </mxCell>
        <mxCell id="PmBzxUUNumcl9Y-DoFM8-8" value="mobile" style="ellipse;whiteSpace=wrap;html=1;" vertex="1" parent="1">
          <mxGeometry x="430" y="340" width="120" height="80" as="geometry" />
        </mxCell>
        <mxCell id="PmBzxUUNumcl9Y-DoFM8-14" style="edgeStyle=orthogonalEdgeStyle;rounded=0;orthogonalLoop=1;jettySize=auto;html=1;exitX=0;exitY=0;exitDx=0;exitDy=0;entryX=0.75;entryY=1;entryDx=0;entryDy=0;" edge="1" parent="1" source="PmBzxUUNumcl9Y-DoFM8-9" target="PmBzxUUNumcl9Y-DoFM8-1">
          <mxGeometry relative="1" as="geometry" />
        </mxCell>
        <mxCell id="PmBzxUUNumcl9Y-DoFM8-9" value="pinCode" style="ellipse;whiteSpace=wrap;html=1;" vertex="1" parent="1">
          <mxGeometry x="360" y="430" width="120" height="80" as="geometry" />
        </mxCell>
        <mxCell id="PmBzxUUNumcl9Y-DoFM8-10" style="edgeStyle=orthogonalEdgeStyle;rounded=0;orthogonalLoop=1;jettySize=auto;html=1;exitX=1;exitY=1;exitDx=0;exitDy=0;entryX=0.41;entryY=-0.06;entryDx=0;entryDy=0;entryPerimeter=0;" edge="1" parent="1" source="PmBzxUUNumcl9Y-DoFM8-3" target="PmBzxUUNumcl9Y-DoFM8-1">
          <mxGeometry relative="1" as="geometry" />
        </mxCell>
        <mxCell id="PmBzxUUNumcl9Y-DoFM8-13" style="edgeStyle=orthogonalEdgeStyle;rounded=0;orthogonalLoop=1;jettySize=auto;html=1;entryX=0.923;entryY=1.044;entryDx=0;entryDy=0;entryPerimeter=0;" edge="1" parent="1" source="PmBzxUUNumcl9Y-DoFM8-8" target="PmBzxUUNumcl9Y-DoFM8-1">
          <mxGeometry relative="1" as="geometry" />
        </mxCell>
        <mxCell id="PmBzxUUNumcl9Y-DoFM8-58" style="edgeStyle=orthogonalEdgeStyle;rounded=0;orthogonalLoop=1;jettySize=auto;html=1;exitX=0.5;exitY=1;exitDx=0;exitDy=0;entryX=0.5;entryY=0;entryDx=0;entryDy=0;" edge="1" parent="1" source="PmBzxUUNumcl9Y-DoFM8-42" target="PmBzxUUNumcl9Y-DoFM8-51">
          <mxGeometry relative="1" as="geometry" />
        </mxCell>
        <mxCell id="PmBzxUUNumcl9Y-DoFM8-67" value="One" style="edgeLabel;html=1;align=center;verticalAlign=middle;resizable=0;points=[];" vertex="1" connectable="0" parent="PmBzxUUNumcl9Y-DoFM8-58">
          <mxGeometry x="-0.893" y="3" relative="1" as="geometry">
            <mxPoint as="offset" />
          </mxGeometry>
        </mxCell>
        <mxCell id="PmBzxUUNumcl9Y-DoFM8-68" value="Many" style="edgeLabel;html=1;align=center;verticalAlign=middle;resizable=0;points=[];" vertex="1" connectable="0" parent="PmBzxUUNumcl9Y-DoFM8-58">
          <mxGeometry x="0.7827" y="-1" relative="1" as="geometry">
            <mxPoint as="offset" />
          </mxGeometry>
        </mxCell>
        <mxCell id="PmBzxUUNumcl9Y-DoFM8-61" style="edgeStyle=orthogonalEdgeStyle;rounded=0;orthogonalLoop=1;jettySize=auto;html=1;exitX=1;exitY=0.5;exitDx=0;exitDy=0;entryX=0;entryY=0.5;entryDx=0;entryDy=0;" edge="1" parent="1" source="PmBzxUUNumcl9Y-DoFM8-42" target="PmBzxUUNumcl9Y-DoFM8-44">
          <mxGeometry relative="1" as="geometry" />
        </mxCell>
        <mxCell id="PmBzxUUNumcl9Y-DoFM8-65" value="One" style="edgeLabel;html=1;align=center;verticalAlign=middle;resizable=0;points=[];" vertex="1" connectable="0" parent="PmBzxUUNumcl9Y-DoFM8-61">
          <mxGeometry x="-0.8592" y="3" relative="1" as="geometry">
            <mxPoint as="offset" />
          </mxGeometry>
        </mxCell>
        <mxCell id="PmBzxUUNumcl9Y-DoFM8-66" value="One" style="edgeLabel;html=1;align=center;verticalAlign=middle;resizable=0;points=[];" vertex="1" connectable="0" parent="PmBzxUUNumcl9Y-DoFM8-61">
          <mxGeometry x="0.7408" relative="1" as="geometry">
            <mxPoint as="offset" />
          </mxGeometry>
        </mxCell>
        <mxCell id="PmBzxUUNumcl9Y-DoFM8-42" value="Cart" style="rounded=0;whiteSpace=wrap;html=1;" vertex="1" parent="1">
          <mxGeometry x="1050" y="190" width="120" height="60" as="geometry" />
        </mxCell>
        <mxCell id="PmBzxUUNumcl9Y-DoFM8-44" value="User" style="rounded=0;whiteSpace=wrap;html=1;" vertex="1" parent="1">
          <mxGeometry x="1670" y="190" width="120" height="60" as="geometry" />
        </mxCell>
        <mxCell id="PmBzxUUNumcl9Y-DoFM8-45" value="discount" style="ellipse;whiteSpace=wrap;html=1;" vertex="1" parent="1">
          <mxGeometry x="1060" y="60" width="120" height="80" as="geometry" />
        </mxCell>
        <mxCell id="PmBzxUUNumcl9Y-DoFM8-46" value="couponCode" style="ellipse;whiteSpace=wrap;html=1;" vertex="1" parent="1">
          <mxGeometry x="920" y="100" width="120" height="80" as="geometry" />
        </mxCell>
        <mxCell id="PmBzxUUNumcl9Y-DoFM8-47" value="totalMrpPrice" style="ellipse;whiteSpace=wrap;html=1;" vertex="1" parent="1">
          <mxGeometry x="910" y="310" width="120" height="80" as="geometry" />
        </mxCell>
        <mxCell id="PmBzxUUNumcl9Y-DoFM8-48" value="totalItem" style="ellipse;whiteSpace=wrap;html=1;" vertex="1" parent="1">
          <mxGeometry x="1200" y="260" width="120" height="80" as="geometry" />
        </mxCell>
        <mxCell id="PmBzxUUNumcl9Y-DoFM8-56" style="edgeStyle=orthogonalEdgeStyle;rounded=0;orthogonalLoop=1;jettySize=auto;html=1;exitX=1;exitY=0.5;exitDx=0;exitDy=0;" edge="1" parent="1" source="PmBzxUUNumcl9Y-DoFM8-49" target="PmBzxUUNumcl9Y-DoFM8-42">
          <mxGeometry relative="1" as="geometry" />
        </mxCell>
        <mxCell id="PmBzxUUNumcl9Y-DoFM8-49" value="totalSellingPrice" style="ellipse;whiteSpace=wrap;html=1;" vertex="1" parent="1">
          <mxGeometry x="870" y="200" width="120" height="80" as="geometry" />
        </mxCell>
        <mxCell id="PmBzxUUNumcl9Y-DoFM8-60" style="edgeStyle=orthogonalEdgeStyle;rounded=0;orthogonalLoop=1;jettySize=auto;html=1;exitX=0;exitY=0.5;exitDx=0;exitDy=0;entryX=1;entryY=0.25;entryDx=0;entryDy=0;" edge="1" parent="1" source="PmBzxUUNumcl9Y-DoFM8-50" target="PmBzxUUNumcl9Y-DoFM8-42">
          <mxGeometry relative="1" as="geometry" />
        </mxCell>
        <mxCell id="PmBzxUUNumcl9Y-DoFM8-50" value="id" style="ellipse;whiteSpace=wrap;html=1;" vertex="1" parent="1">
          <mxGeometry x="1200" y="110" width="120" height="80" as="geometry" />
        </mxCell>
        <mxCell id="PmBzxUUNumcl9Y-DoFM8-51" value="CartItem" style="rounded=0;whiteSpace=wrap;html=1;" vertex="1" parent="1">
          <mxGeometry x="1050" y="620" width="120" height="60" as="geometry" />
        </mxCell>
        <mxCell id="PmBzxUUNumcl9Y-DoFM8-52" style="edgeStyle=orthogonalEdgeStyle;rounded=0;orthogonalLoop=1;jettySize=auto;html=1;exitX=0.5;exitY=1;exitDx=0;exitDy=0;entryX=0.587;entryY=-0.063;entryDx=0;entryDy=0;entryPerimeter=0;" edge="1" parent="1" source="PmBzxUUNumcl9Y-DoFM8-45" target="PmBzxUUNumcl9Y-DoFM8-42">
          <mxGeometry relative="1" as="geometry" />
        </mxCell>
        <mxCell id="PmBzxUUNumcl9Y-DoFM8-54" style="edgeStyle=orthogonalEdgeStyle;rounded=0;orthogonalLoop=1;jettySize=auto;html=1;exitX=0;exitY=0;exitDx=0;exitDy=0;entryX=0.873;entryY=1.043;entryDx=0;entryDy=0;entryPerimeter=0;" edge="1" parent="1" source="PmBzxUUNumcl9Y-DoFM8-48" target="PmBzxUUNumcl9Y-DoFM8-42">
          <mxGeometry relative="1" as="geometry" />
        </mxCell>
        <mxCell id="PmBzxUUNumcl9Y-DoFM8-55" style="edgeStyle=orthogonalEdgeStyle;rounded=0;orthogonalLoop=1;jettySize=auto;html=1;exitX=1;exitY=1;exitDx=0;exitDy=0;entryX=0.107;entryY=-0.01;entryDx=0;entryDy=0;entryPerimeter=0;" edge="1" parent="1" source="PmBzxUUNumcl9Y-DoFM8-46" target="PmBzxUUNumcl9Y-DoFM8-42">
          <mxGeometry relative="1" as="geometry" />
        </mxCell>
        <mxCell id="PmBzxUUNumcl9Y-DoFM8-57" style="edgeStyle=orthogonalEdgeStyle;rounded=0;orthogonalLoop=1;jettySize=auto;html=1;exitX=1;exitY=0.5;exitDx=0;exitDy=0;entryX=0.173;entryY=0.99;entryDx=0;entryDy=0;entryPerimeter=0;" edge="1" parent="1" source="PmBzxUUNumcl9Y-DoFM8-47" target="PmBzxUUNumcl9Y-DoFM8-42">
          <mxGeometry relative="1" as="geometry" />
        </mxCell>
      </root>
    </mxGraphModel>
  </diagram>
</mxfile>
